<svg xmlns="http://www.w3.org/2000/svg" xml:space="preserve" width="195mm" height="100mm" viewBox="0 0 195 100"><path d="M79.298 93.952c-4.699-2.202-2.697-9.101 2.531-8.723 5.662.41 5.526 8.506-.153 9.095-.946.098-1.591-.002-2.378-.372m3.434-.676c1.962-.82 2.903-3.1 2.063-5-.932-2.107-3.384-2.932-5.28-1.776-3.998 2.437-1.084 8.573 3.217 6.776m-19.104-2.169c-5.334-2.657-4.304-9.772 1.592-11.009 4.117-.863 7.881 1.987 7.881 5.968 0 4.551-5.056 7.242-9.473 5.041m5.77-.912c3.239-1.636 3.545-5.48.629-7.885-2.732-2.251-6.986-1.36-8.363 1.752-1.862 4.21 3.353 8.345 7.733 6.133M51.91 82.98c-2.376-1.244-3.528-4.108-2.73-6.792 1.491-5.023 8.27-5.824 10.551-1.247 2.524 5.065-2.884 10.624-7.82 8.04m4.782-.974c4.492-2.292 2.892-8.999-2.146-8.999-1.389 0-3.16.996-3.9 2.193-2.54 4.111 1.785 8.98 6.046 6.806m1.328-5.427c0-.073.06-.132.132-.132s.133.06.133.132-.06.132-.133.132a.133.133 0 0 1-.132-.132m18.521-25.681c-.51-.193-1.288-.357-1.731-.365-.806-.015-.806-.015-1.405-3.09-1.149-5.895-1.576-6.445-5-6.449-1.389 0-1.389 0-1.389 3.396 0 2.251.133 3.836.394 4.697.217.714.395 1.358.397 1.43.004.196-5.962-.158-6.312-.375-.165-.101-.3-.746-.3-1.433 0-.686-.114-2.197-.253-3.358-.139-1.16-.373-4.014-.52-6.343-.38-6.027-.262-5.816-3.265-5.838-1.344-.01-3.787-.175-5.429-.367-1.641-.192-3.049-.285-3.128-.206-.079.08.055 1.491.297 3.138.618 4.198.005 6.368-2.923 10.35-1.18 1.606-1.084 1.64-2.693-.925-3.018-4.811-3.44-6.361-2.328-8.554.364-.716.661-1.362.662-1.436 0-.114-11.917.794-12.1.921-.034.024.114.969.33 2.1.83 4.33.455 5.564-2.954 9.73-1.256 1.535-1.598 1.802-2.305 1.799-.83-.004-.83-.004.207-.596.997-.568 1.087-.738 2.338-4.427 1.3-3.837 1.3-3.837.904-7.012-.218-1.746-.317-3.248-.22-3.337.096-.09 3.509-.307 7.583-.483 4.075-.176 7.809-.38 8.298-.454.67-.1.853-.047.743.219-1.659 4.013-1.863 6.365-.843 9.686.891 2.901.818 2.94 2.42-1.265 1.258-3.307 1.258-3.307 1.364-7.21.073-2.721.198-3.902.412-3.901.168 0 1.02.122 1.894.269 2.136.36 7.25.36 9.492 0 1.001-.16 1.883-.229 1.96-.152.363.363.829 7.214.84 12.353.01 5.724.01 5.724 1.412 5.899 2.15.269 2.204.211 2.402-2.576.535-7.564.069-6.799 4.142-6.799 2.712 0 3.673.087 3.77.339.071.186.46 2.329.863 4.762.733 4.424.733 4.424 1.85 4.424.613 0 1.622.179 2.24.397 1.674.59 2.596.492 4.665-.5 1.926-.923 2.215-1.254 2.215-2.542 0-1.441-3.186-3.793-7.585-5.6l-2.787-1.144 1.463-1.362c.804-.748 2.467-2.022 3.695-2.831 4.226-2.783 4.8-4.46 2.577-7.53-1.068-1.474-2.306-1.813-5.02-1.376-1.914.31-6.52 1.771-8.016 2.545-.84.434-.9.053-.748-4.826.242-7.784-2.374-8.06-12.759-1.347-1.57 1.014-2.889 1.799-2.933 1.743-.043-.055-.474-1.113-.957-2.35-2.67-6.839-3.66-8.1-6.15-7.84-2.738.286-4.507 1.66-6.349 4.93-.45.8-.854 1.5-.896 1.553-.042.054-1.243-.617-2.669-1.49-8.886-5.447-11.167-5.723-11.93-1.447-.409 2.29.193 4.34 2.087 7.104.746 1.09.746 1.09-1.097 1.222-2.645.189-4.881 1.353-7.29 3.792-3.975 4.028-3.976 6.734-.002 8.715 1.677.835 1.275.835-1.37 0-4.846-1.531-6.454-4.254-4.371-7.401 2.62-3.959 6.49-6.492 10.645-6.968 1.615-.185 1.615-.185.655-1.608-1.597-2.37-2.06-3.654-2.06-5.72 0-6.052 3.054-6.102 12.914-.214 1.612.963 3.01 1.792 3.106 1.843s.606-.678 1.132-1.619c1.877-3.356 3.915-4.946 6.799-5.304 2.907-.36 3.712.494 6.339 6.723 1.97 4.672 1.766 4.436 3.036 3.517C56.883 21.158 62.4 18 64.35 17.171c5.39-2.294 6.657-1.099 6.6 6.225-.02 2.412.037 4.457.124 4.544s1.442-.32 3.012-.903c3.57-1.328 6.162-1.92 8.408-1.92 2.226 0 2.97.4 4.02 2.159 1.982 3.318 1.499 4.462-3.223 7.63-1.48.993-3.33 2.392-4.11 3.11-1.418 1.304-1.418 1.304.551 2.048 5.676 2.143 9.51 4.925 9.51 6.9 0 1.739-1.99 2.706-7.821 3.799-3.294.617-3.583.625-4.879.135m-56.45-1.467c-.562-.132-1.362-.441-1.78-.687-3.118-1.843.523-8.693 4.316-8.117 1.244.19 2.259.608 1.508.622-.649.013-2.59 1.81-3.159 2.923-1.437 2.816-.752 4.645 1.987 5.306.66.16.572.192-.53.192-.727 0-1.781-.107-2.343-.239M45.055 6.465c0-.073.06-.133.132-.133s.132.06.132.133c0 .072-.06.132-.132.132a.133.133 0 0 1-.132-.132" style="fill:#000;fill-opacity:1"><desc>Inner Ring, Buildings, and outer small bubbles</desc></path><path d="M79.99 91.633c-1.707-1.707-.59-4.546 1.788-4.546 1.325 0 2.363.789 2.584 1.963.464 2.477-2.643 4.312-4.372 2.583m3.084-.36c1.173-1.1.28-3.657-1.276-3.657-1.774 0-2.112 3.28-.41 3.967.863.347 1.018.319 1.686-.31M66.94 88.916c-2.241-1.183-2.641-3.577-.869-5.202 3.042-2.787 7.68 1.67 4.7 4.515-1.35 1.287-2.353 1.467-3.83.687m2.045-.499c1.516-.576 2.207-2.93 1.142-3.89-1.16-1.043-2.268-.924-3.437.368-1.605 1.773.084 4.363 2.295 3.522m-15.606-6.993c-2.734-1.19-3.056-4.937-.558-6.482 1.82-1.125 4.553-.473 5.511 1.314 1.691 3.153-1.629 6.616-4.953 5.168m2.92-.995c1.538-1.21 1.768-3.434.462-4.462-2.513-1.976-5.792 1.992-3.522 4.262.94.94 2.029 1.01 3.06.2m-15.925-7.576c-2.553-.913-4.433-2.494-6.845-5.756-1.44-1.946-1.44-1.946-3.091-1.164-2.737 1.294-5.441.985-6.285-.72-.224-.452-.384-1.688-.406-3.128-.034-2.382-.034-2.382-3.848-2.54-8.06-.334-11.323-3.47-10.3-9.896.573-3.6.573-3.596-.767-4.046-3.098-1.041-4.43-3.8-4.175-8.648.406-7.708 4.059-13.177 10.008-14.983 1-.304 1.817-.614 1.817-.688 0-.075-.43-1.008-.958-2.074-1.636-3.311-1.119-5.873 1.82-9.015 5.282-5.646 11.08-6.06 16.834-1.203 1.423 1.202 1.423 1.202 2.298.689 6.239-3.656 7.598-4.145 11.928-4.293 6.489-.221 9.982 1.818 10.043 5.863.034 2.288.006 2.28 2.9.913 2.363-1.117 2.363-1.117 6.332-1.096 9.572.051 13.277 2.396 13.2 8.353-.034 2.583-.129 2.493 2.014 1.918 3.364-.903 6.005-.31 9.11 2.047 6.459 4.902 6.635 13.618.331 16.32-1.472.632-1.438.881.181 1.334 4.232 1.185 6.431 7.861 4.153 12.608-1.965 4.094-5.244 5.28-12.717 4.6-1.671-.152-1.581-.416-1.189 3.48.332 3.298-.726 4.85-4.677 6.857-6.28 3.19-13.052 2.588-19.408-1.725-1.367-.928-1.551-.873-2.456.73-1.543 2.736-3.804 4.096-8.234 4.955-4.18.81-6.004.884-7.613.308m6.403-4.417c4.615-.764 7.048-2.054 8.48-4.5.842-1.435.895-1.439 2.897-.23 4.886 2.95 8.569 3.542 13.766 2.213 6.07-1.552 8.458-4.461 7.246-8.827-.393-1.416-.178-1.515 2.63-1.201 4.592.512 7.586-.4 9.486-2.892 3.003-3.937 1.48-10.602-2.767-12.11-1.705-.604-1.708-.657-.077-1.421 2.476-1.16 3.78-3.342 3.808-6.374.051-5.508-6.628-10.888-12.01-9.672-2.783.628-2.63.72-2.606-1.561.052-5.069-3.368-7.137-11.803-7.137-3.969 0-3.969 0-6.153.964-2.296 1.013-2.594.973-2.312-.308.891-4.06-6.268-7.068-12.654-5.316-2.003.55-4.824 1.829-6.841 3.102-1.3.821-1.321.818-2.922-.447-4.962-3.922-10.237-3.616-14.781.858-2.972 2.926-3.587 5.677-1.882 8.42.994 1.6.972 1.647-1.006 2.212-5.267 1.504-8.999 7.219-8.994 13.775.003 3.782 1.12 5.776 3.756 6.704 1.245.439 1.307.505 1.172 1.257-.66 3.668-.684 4.018-.383 5.554.708 3.62 4.07 5.496 9.782 5.46 3.083-.018 3.083-.018 3.042 1.892-.023 1.098.11 2.268.315 2.752.728 1.726 3.399 2.135 5.834.893 1.462-.746 1.745-.694 2.444.448 3.001 4.906 6.583 6.476 12.533 5.492m-2.735-8.833c-.195-.123-.314-.508-.265-.856.083-.585.205-.631 1.677-.631s1.594.046 1.677.631c.112.795-.332 1.08-1.677 1.08-.582 0-1.217-.1-1.412-.224m.002-2.908c-.2-.127-.314-.555-.265-.99.144-1.254 2.43-1.169 2.552.096.073.761.008.86-.574.86-.36 0-.815.058-1.009.13-.194.07-.51.028-.704-.096m-1.368-4.248c0-1.215.079-1.248 2.675-1.122 1.823.087 1.823.087 1.823 1.124s0 1.037-2.249 1.037-2.249 0-2.249-1.04m25.683-.78c-.487-.908-.085-1.356 1.217-1.356 1.171 0 1.179.006 1.097.86-.105 1.084-1.804 1.449-2.314.497m-14.69-3.436c-.288-.904.106-1.36 1.174-1.36 1.137 0 1.715.518 1.463 1.31-.24.757-2.4.797-2.638.05m-16.88.048c-.544-.146-.85-1.134-.597-1.931.156-.492.348-.552 1.545-.482 1.341.077 1.369.096 1.453.972.114 1.2-.937 1.831-2.4 1.44m-5.652-.727c-.412-1.075-.008-1.605 1.29-1.688 1.392-.09 1.705.223 1.41 1.404-.196.78-2.42 1.013-2.7.284m38.99.195c-.33-.086-.463-.387-.463-1.043 0-.92 0-.922 1.124-.84 1.02.073 1.133.151 1.212.846.12 1.056-.495 1.397-1.873 1.037M50.68 45.539c-.837-.337-.82-1.513.025-1.725 1.542-.387 2.681-.042 2.767.839.106 1.088-1.232 1.513-2.792.886m-17.154-2.732c-.33-.861.004-1.888.644-1.978 1.394-.197 1.93.158 1.84 1.221-.078.953-.115.986-1.208 1.065-.804.058-1.17-.03-1.276-.308m17.154-2.03c-.328-.132-.594-.452-.592-.712.008-.944.393-1.166 1.874-1.082 1.387.08 1.432.106 1.51.907.106 1.089-1.232 1.513-2.792.886m5.943-.157c-.355-.355-.193-1.629.227-1.79.725-.279 1.477.325 1.386 1.112-.081.705-1.14 1.15-1.613.678m-24.955-1.004c-.505-1.315-.035-1.871 1.65-1.952 1.739-.084 2.251.432 1.81 1.82-.205.648-3.218.763-3.46.132m5.517-.725c-.182-.18-.328-.573-.326-.871.007-1 .372-1.241 1.742-1.154 1.297.082 1.297.082 1.297 1.14 0 1.059 0 1.059-1.192 1.137-.698.045-1.328-.059-1.521-.252m14.8-2.397c-.466-.466-.393-1.972.105-2.163 1.783-.684 3.444.52 2.554 1.85-.298.446-2.291.68-2.66.313" style="fill:#ef8d23;fill-opacity:1"><desc>Outer Ring, Windows, and small inner bubbles</desc></path><text xml:space="preserve" x="109.379" y="32.476" style="font-size:15.7462px;fill:#ef8d23;fill-opacity:1;stroke:#1a1a1a;stroke-width:2.23175;stroke-dasharray:none;stroke-opacity:1" transform="scale(1.01331 .98686)"><tspan x="109.379" y="32.476" style="font-style:normal;font-variant:normal;font-weight:400;font-stretch:normal;font-size:15.7462px;font-family:Impact;-inkscape-font-specification:Impact;fill:#000;stroke:none;stroke-width:2.23175">COMPOSE </tspan></text><text xml:space="preserve" x="104.292" y="53.223" style="font-style:normal;font-variant:normal;font-weight:400;font-stretch:normal;font-size:20.7229px;font-family:Impact;-inkscape-font-specification:Impact;fill:#ef8d23;fill-opacity:1;stroke:none;stroke-width:2.93712;stroke-dasharray:none;stroke-opacity:1" transform="scale(1.06754 .93673)"><tspan x="104.292" y="53.223" style="fill:#ef8d23;fill-opacity:1;stroke-width:2.93712">DREAM</tspan></text><text xml:space="preserve" x="127.255" y="62.072" style="font-style:normal;font-variant:normal;font-weight:400;font-stretch:normal;font-size:12.8116px;font-family:Impact;-inkscape-font-specification:Impact;fill:#000;fill-opacity:1;stroke:none;stroke-width:1.81582;stroke-dasharray:none;stroke-opacity:1" transform="scale(.97734 1.02318)"><tspan x="127.255" y="62.072" style="stroke-width:1.81582">GAMES</tspan></text><text xml:space="preserve" x="127.603" y="75.171" style="font-style:normal;font-variant:normal;font-weight:400;font-stretch:normal;font-size:11.9916px;font-family:Impact;-inkscape-font-specification:Impact;fill:#ef8d23;fill-opacity:1;stroke:none;stroke-width:1.6996;stroke-dasharray:none;stroke-opacity:1" transform="scale(.83717 1.1945)"><tspan x="127.603" y="75.171" style="fill:#ef8d23;fill-opacity:1;stroke-width:1.6996"><tspan style="fill:#000;stroke-width:1.6996">RPG</tspan>  Market<tspan style="fill:#000;stroke-width:1.6996">Place</tspan></tspan></text></svg>